<?xml version="1.0" encoding="UTF-8" standalone="no"?>
<!-- Created with Inkscape (http://www.inkscape.org/) -->

<svg
   xmlns:dc="http://purl.org/dc/elements/1.1/"
   xmlns:cc="http://creativecommons.org/ns#"
   xmlns:rdf="http://www.w3.org/1999/02/22-rdf-syntax-ns#"
   xmlns:svg="http://www.w3.org/2000/svg"
   xmlns="http://www.w3.org/2000/svg"
   xmlns:sodipodi="http://sodipodi.sourceforge.net/DTD/sodipodi-0.dtd"
   xmlns:inkscape="http://www.inkscape.org/namespaces/inkscape"
   width="5000"
   height="5000"
   viewBox="0 0 5000 4999.9999"
   id="svg2"
   version="1.1"
   inkscape:version="0.92.4 (5da689c313, 2019-01-14)"
   sodipodi:docname="circle-openjdk.svg"
   inkscape:export-filename="/home/felicianotech/Projects/cloud-unpacked/graphics/logos/master/master.png"
   inkscape:export-xdpi="11.9"
   inkscape:export-ydpi="11.9">
  <defs
     id="defs4">
    <path
       d="M34,15.167c0,0-7.333,5.833-9.333,6C22.667,21.333,14,27,14,27l-5.667-0.166L2,19.667l8.667,64.752h100.581    l-70.51-70.51L34,15.167z"
       id="SVGID_1_" />
    <filter
       height="70.51"
       width="109.248"
       y="13.909"
       x="2"
       filterUnits="userSpaceOnUse"
       id="Adobe_OpacityMaskFilter">
      <feColorMatrix
         id="feColorMatrix1326"
         values="1 0 0 0 0  0 1 0 0 0  0 0 1 0 0  0 0 0 1 0"
         type="matrix" />
    </filter>
    <path
       d="M18.692,15.471h3.947v-3.866h-3.947V15.471z M4.164,15.47h3.947v-3.866H4.164V15.47z M8.111,11.604h0.002    H8.111z M9.008,15.47h3.947v-3.866H9.008V15.47z M13.851,15.47h3.946v-3.866h-3.946V15.47z M23.535,15.47h3.946v-3.866h-3.946    V15.47z M7.588,22.131c0-1.129,0.936-2.046,2.087-2.046c1.151,0,2.089,0.917,2.089,2.046c0,1.127-0.937,2.046-2.089,2.046    C8.526,24.177,7.588,23.258,7.588,22.131 M32.206,9.347c-0.835,0.948-1.084,2.522-0.97,3.731c0.084,0.89,0.369,1.791,0.928,2.506    c-0.425,0.25-0.908,0.447-1.338,0.591c-0.874,0.289-1.825,0.45-2.75,0.45H2.111l-0.056,0.589c-0.184,1.955,0.089,3.911,0.915,5.7    l0.354,0.711l0.041,0.066c2.443,4.063,6.729,5.774,11.402,5.774c9.046,0,16.507-3.957,19.933-12.318    c2.289,0.115,4.631-0.547,5.752-2.689l0.286-0.549l-0.542-0.305c-1.327-0.749-3.091-0.853-4.594-0.418v0.001    c-0.186-1.567-1.235-2.939-2.484-3.922l-0.495-0.389L32.206,9.347z M9.008,10.512h3.947V6.645H9.008V10.512z M13.851,10.512h3.946    V6.645h-3.946V10.512z M18.692,10.512h3.947V6.645h-3.947V10.512z M18.692,5.554h3.947V1.687h-3.947V5.554z"
       id="SVGID_6_" />
    <clipPath
       id="clipPath1164"
       clipPathUnits="userSpaceOnUse">
      <path
         inkscape:connector-curvature="0"
         id="path1162"
         d="m 2764.8,0 c 1526.93,0 2764.81,651.164 2764.81,1454.39 0,803.24 -1237.88,1454.4 -2764.81,1454.4 C 1237.87,2908.79 0,2257.63 0,1454.39 0,651.164 1237.87,0 2764.8,0" />
    </clipPath>
  </defs>
  <sodipodi:namedview
     id="base"
     pagecolor="#000000"
     bordercolor="#666666"
     borderopacity="1.0"
     inkscape:pageopacity="0"
     inkscape:pageshadow="2"
     inkscape:zoom="0.088388348"
     inkscape:cx="4049.8377"
     inkscape:cy="195.94416"
     inkscape:document-units="px"
     inkscape:current-layer="layer1"
     showgrid="false"
     inkscape:window-width="3732"
     inkscape:window-height="2032"
     inkscape:window-x="108"
     inkscape:window-y="54"
     inkscape:window-maximized="1"
     fit-margin-top="0"
     fit-margin-left="0"
     fit-margin-right="0"
     fit-margin-bottom="0"
     showborder="true"
     units="px"
     inkscape:pagecheckerboard="true" />
  <metadata
     id="metadata7">
    <rdf:RDF>
      <cc:Work
         rdf:about="">
        <dc:format>image/svg+xml</dc:format>
        <dc:type
           rdf:resource="http://purl.org/dc/dcmitype/StillImage" />
        <dc:title></dc:title>
      </cc:Work>
    </rdf:RDF>
  </metadata>
  <g
     inkscape:label="Layer 1"
     inkscape:groupmode="layer"
     id="layer1"
     transform="translate(2386.9101,-3798.7827)">
    <circle
       style="fill:#a4bad9;fill-opacity:1"
       id="path864"
       cx="113.0899"
       cy="6298.7827"
       r="2500" />
    <circle
       style="fill:#000000;fill-opacity:1;stroke:none;stroke-width:2;stroke-linecap:square;stroke-linejoin:miter;stroke-miterlimit:4;stroke-dasharray:none;stroke-opacity:1"
       id="path4304-4-6"
       cx="2523.1167"
       cy="-317.93839"
       r="0" />
    <circle
       style="fill:#000000;fill-opacity:1;stroke:none;stroke-width:2;stroke-linecap:square;stroke-linejoin:miter;stroke-miterlimit:4;stroke-dasharray:none;stroke-opacity:1"
       id="path4304-4-2"
       cx="320.25952"
       cy="862.34735"
       r="0" />
    <circle
       style="fill:#000000;fill-opacity:1;stroke:none;stroke-width:2;stroke-linecap:square;stroke-linejoin:miter;stroke-miterlimit:4;stroke-dasharray:none;stroke-opacity:1"
       id="path4304-4-0"
       cx="2523.1167"
       cy="862.34735"
       r="0" />
    <circle
       style="fill:#000000;fill-opacity:1;stroke:none;stroke-width:2;stroke-linecap:square;stroke-linejoin:miter;stroke-miterlimit:4;stroke-dasharray:none;stroke-opacity:1"
       id="path4304-4-0-6"
       cx="1385.9738"
       cy="2456.3474"
       r="0" />
    <circle
       style="fill:#000000;fill-opacity:1;stroke:none;stroke-width:2;stroke-linecap:square;stroke-linejoin:miter;stroke-miterlimit:4;stroke-dasharray:none;stroke-opacity:1"
       id="path4304-4-9-6"
       cx="2458.947"
       cy="2162.2476"
       r="0" />
    <circle
       style="fill:#000000;fill-opacity:1;stroke:none;stroke-width:2;stroke-linecap:square;stroke-linejoin:miter;stroke-miterlimit:4;stroke-dasharray:none;stroke-opacity:1"
       id="path4304-4-9-0"
       cx="2475.4346"
       cy="-339.29968"
       r="0" />
    <g
       transform="matrix(4.7156886,0,0,4.7156886,-1713.3974,5626.6135)"
       id="layer1-3"
       inkscape:label="Livello 1">
      <path
         inkscape:connector-curvature="0"
         id="path3798"
         d="M 119.65625,57.71875 C 88.214965,57.361607 75,88.352672 75,126.125 c 0,37.77233 13.214965,68.375 44.65625,68.375 31.44129,0 44.625,-30.60267 44.625,-68.375 0,-37.772328 -13.18371,-68.049107 -44.625,-68.40625 z m 0,12.15625 c 17.88508,0 27.84375,18.755413 27.84375,56.25 0,37.49459 -10.31582,56.25 -27.84375,56.25 -17.52793,0 -27.875,-18.04113 -27.875,-56.25 0,-38.208873 9.98992,-56.25 27.875,-56.25 z"
         style="fill:#e76f00;fill-opacity:1;stroke:none" />
      <path
         inkscape:connector-curvature="0"
         id="path3824"
         d="m 222.1875,93.0625 c -5.14716,0.148067 -10.24532,2.387818 -14.6875,5 -2.99461,1.760948 -7.59375,7.15625 -7.59375,7.15625 V 94.3125 h -14.5625 v 132.34375 h 14.5625 v -32.5 c 0,0 13.93983,0.67385 20.4375,-1.4375 C 226.75246,190.6363 232.93138,186.95337 237.5,182 c 5.08999,-5.51864 8.25696,-12.78829 10.34375,-20 2.32481,-8.03429 2.34895,-16.63833 2.15625,-25 -0.18814,-8.16367 -0.23844,-16.67871 -3.21875,-24.28125 -2.182,-5.5661 -5.61511,-10.99804 -10.34375,-14.65625 -3.72496,-2.881734 -8.51091,-4.873619 -13.21875,-5 -0.34343,-0.0092 -0.68811,-0.0099 -1.03125,0 z m -3.71875,12.46875 c 0.27471,0.002 0.53597,0.005 0.8125,0.0312 3.19083,0.3059 5.94868,2.73688 8.21875,5 3.06539,3.05601 5.48888,6.9627 6.78125,11.09375 1.88688,6.03136 1.0732,12.58664 1.0625,18.90625 -0.0101,5.96308 0.16933,12.04054 -1.0625,17.875 -1.1283,5.34413 -2.52663,10.91169 -5.71875,15.34375 -2.7708,3.84708 -6.59182,7.35942 -11.0625,8.9375 -3.36778,1.18878 -7.20149,0.61965 -10.71875,0 -2.40149,-0.42308 -6.875,-2.5 -6.875,-2.5 v -64.65625 c 0,0 4.33774,-3.92854 6.875,-5.34375 3.63919,-2.02983 7.56687,-4.71027 11.6875,-4.6875 z"
         style="fill:#e76f00;fill-opacity:1;stroke:none" />
      <path
         inkscape:connector-curvature="0"
         id="path3828"
         d="m 298.8125,92.71875 c -5.8813,0.184329 -11.86192,2.350733 -16.65625,5.71875 -4.79308,3.36714 -8.30447,8.6006 -10.71875,13.9375 -2.80027,6.19014 -3.24175,13.24165 -3.9375,20 -0.76895,7.46946 -0.79893,15.01116 -0.25,22.5 0.48297,6.58886 0.68763,13.44095 3.09375,19.59375 1.7196,4.39728 4.46951,8.51081 7.875,11.78125 3.31872,3.1871 7.35135,5.94347 11.78125,7.1875 6.533,1.83463 13.64967,1.11139 20.34375,0 5.08802,-0.84474 10.03134,-2.71708 14.65625,-5 1.92447,-0.94995 5.34375,-3.5625 5.34375,-3.5625 l -3.90625,-8.21875 c 0,0 -8.07694,4.24141 -12.5,5 -5.75417,0.98689 -12.09314,1.4836 -17.5,-0.71875 -4.44988,-1.81254 -8.08611,-5.63681 -10.71875,-9.65625 -2.47521,-3.77908 -3.55762,-8.38454 -4.28125,-12.84375 -0.70557,-4.34789 0,-13.21875 0,-13.21875 H 330 c 0,0 0.64526,-19.58597 -1.78125,-28.9375 -1.5246,-5.87568 -3.35594,-12.35332 -7.875,-16.40625 C 314.99013,95.07359 307.19061,92.818537 300,92.71875 c -0.39057,-0.0054 -0.79541,-0.01229 -1.1875,0 z m 1.25,10.3125 c 1.893,-0.0501 3.84431,0.42641 5.5,1.3125 2.41411,1.29199 4.27745,3.54518 5.8125,5.8125 2.15649,3.1852 3.61914,6.86467 4.5625,10.59375 1.14015,4.50698 1.25,13.875 1.25,13.875 h -36.375 c 0,0 0.31992,-7.44325 1.03125,-11.09375 0.55517,-2.84908 1.1821,-5.75752 2.5,-8.34375 1.58233,-3.10515 3.57862,-6.15111 6.3125,-8.3125 2.45398,-1.9401 5.48408,-3.47204 8.59375,-3.8125 0.26668,-0.0292 0.54207,-0.0241 0.8125,-0.0312 z"
         style="fill:#e76f00;fill-opacity:1;stroke:none" />
      <path
         sodipodi:nodetypes="ccccaaaaaccccaaaaaaaccc"
         inkscape:connector-curvature="0"
         id="path3832"
         d="m 353.55339,93.979954 v 97.732256 h 14.2684 v -75.5089 c 0,0 4.80101,-4.26318 7.44988,-6.06092 2.71289,-1.84118 5.40096,-4.0215 8.5863,-4.79822 2.61834,-0.63846 5.57736,-0.74446 8.08122,0.25254 1.88348,0.74998 3.21704,2.50938 4.54568,4.04061 1.21065,1.39525 2.35367,2.91321 3.0611,4.61965 1.27342,3.07165 2.21173,7.33775 1.98967,9.77502 v 67.68022 h 14.64721 v -71.97337 c 0.11323,-1.66812 -1.48385,-7.92585 -3.03046,-11.61675 -1.27272,-3.03728 -2.89671,-6.00404 -5.06608,-8.481692 -1.55327,-1.774002 -3.46713,-3.274908 -5.54052,-4.397753 -2.34078,-1.267647 -4.93343,-2.20559 -7.57614,-2.525381 -3.10223,-0.375397 -6.32232,-0.03904 -9.34392,0.757614 -2.5128,0.66251 -4.84093,1.948963 -7.07106,3.282996 -2.16723,1.296409 -4.04169,3.029025 -6.06092,4.545686 -1.58793,1.1927 -4.76125,3.58149 -4.76125,3.58149 l 0.0893,-10.905096 z"
         style="fill:#e76f00;fill-opacity:1;stroke:none" />
      <path
         sodipodi:nodetypes="cccaaaccaacc"
         inkscape:connector-curvature="0"
         id="path3834"
         d="m 438.92857,59.147895 h 26.42857 V 187.71932 c 0.10539,2.68918 -1.1884,9.72523 -2.85714,14.28572 -1.35493,3.70287 -3.43449,7.14006 -5.71428,10.35714 -1.9378,2.73448 -4.33338,5.12335 -6.69643,7.5 -2.62976,2.64489 -8.30358,7.5 -8.30358,7.5 L 427.5,215.57647 c 0,0 4.09521,-4.80618 5.71429,-7.5 1.90713,-3.17307 3.69953,-6.50939 4.64285,-10.08929 0.72299,-2.74373 0.71429,-8.48214 0.71429,-8.48214 z"
         style="fill:#5382a1;fill-opacity:1;stroke:none" />
      <path
         inkscape:connector-curvature="0"
         id="path3836"
         d="m 532.5,58.4375 -39.65625,0.34375 v 133.9375 h 41.8125 c 0,0 11.55317,-1.24062 16.78125,-3.5625 6.31136,-2.80298 12.08128,-7.09658 16.78125,-12.15625 5.71133,-6.14842 10.36298,-13.54656 13.21875,-21.4375 3.72406,-10.29017 4.35116,-21.56011 4.625,-32.5 0.22735,-9.08307 -0.0765,-18.36825 -2.5,-27.125 C 581.73042,89.317592 578.86501,82.803261 574.65625,77.375 571.0324,72.701132 566.25151,68.77501 561.0625,65.9375 554.71931,62.46885 547.40192,61.065187 540.34375,59.5 537.76315,58.927739 532.5,58.4375 532.5,58.4375 Z m 0.71875,22.125 c 0,0 7.20373,2.545716 10.34375,4.65625 3.00498,2.019773 5.79468,4.53661 7.875,7.5 2.54188,3.620887 4.24283,7.8714 5.34375,12.15625 1.69511,6.59748 1.70995,13.53235 1.78125,20.34375 0.0749,7.15832 0.29184,14.4831 -1.40625,21.4375 -0.98634,4.03948 -2.7279,7.92375 -5,11.40625 -2.20978,3.38699 -4.85362,6.69455 -8.21875,8.9375 -3.4784,2.31845 -11.78125,4.28125 -11.78125,4.28125 H 518.5625 V 80.9375 Z"
         style="fill:#5382a1;fill-opacity:1;stroke:none" />
      <path
         sodipodi:nodetypes="cccccccccccc"
         inkscape:connector-curvature="0"
         id="path3840"
         d="M 606.42857,58.612181 H 632.5 V 115.93361 L 667.14286,58.612181 H 697.5 l -43.57143,61.249999 45.71429,72.85715 H 666.78572 L 632.5,133.07647 v 59.64286 h -26.07143 z"
         style="fill:#5382a1;fill-opacity:1;stroke:none" />
    </g>
  </g>
  <style
     id="style1118"
     type="text/css">
	.st0{fill:#2DBCAF;}
	.st1{fill:#5DC9E1;}
	.st2{fill:#FDDD00;}
	.st3{fill:#CE3262;}
	.st4{fill:#00ACD7;}
	.st5{fill:#FFFFFF;}
</style>
</svg>
